<?xml version="1.0" encoding="UTF-8" standalone="no"?><!DOCTYPE svg PUBLIC "-//W3C//DTD SVG 1.1//EN" "http://www.w3.org/Graphics/SVG/1.1/DTD/svg11.dtd"><svg width="100%" height="100%" viewBox="0 0 786 506" version="1.1" xmlns="http://www.w3.org/2000/svg" xmlns:xlink="http://www.w3.org/1999/xlink" xml:space="preserve" xmlns:serif="http://www.serif.com/" style="fill-rule:evenodd;clip-rule:evenodd;stroke-linejoin:round;stroke-miterlimit:2;"><rect x="466.14" y="151.748" width="176.892" height="16.667" style="fill:#431c0d;"/><path d="M12.163,352.345l-12.163,-127.071l21.421,0l4.901,61.539l3.086,-34.128l12.707,0l3.086,36.851l5.446,-64.262l20.876,0l-12.163,127.071l-19.424,0l-4.175,-50.102l-4.357,50.102l-19.242,0Z" style="fill:#431c0d;fill-rule:nonzero;"/><path d="M123.803,355.249c-7.019,0 -13.221,-1.846 -18.607,-5.537c-5.385,-3.691 -9.621,-8.804 -12.707,-15.339c-3.086,-6.535 -4.629,-14.038 -4.629,-22.51l0,-46.29c0,-8.471 1.543,-15.944 4.629,-22.419c3.086,-6.475 7.322,-11.557 12.707,-15.249c5.385,-3.691 11.588,-5.537 18.607,-5.537c7.019,0 13.221,1.846 18.607,5.537c5.385,3.691 9.621,8.774 12.707,15.249c3.086,6.475 4.629,13.948 4.629,22.419l0,46.29c0,8.471 -1.543,15.975 -4.629,22.51c-3.086,6.535 -7.322,11.648 -12.707,15.339c-5.385,3.691 -11.588,5.537 -18.607,5.537Zm0,-25.414c6.051,0 9.076,-5.204 9.076,-15.612l0,-50.828c0,-10.408 -3.025,-15.612 -9.076,-15.612c-6.051,0 -9.076,5.204 -9.076,15.612l0,50.828c0,10.408 3.025,15.612 9.076,15.612Z" style="fill:#431c0d;fill-rule:nonzero;"/><path d="M181.53,352.345l0,-127.071l32.857,0c12.102,0 21.269,2.753 27.502,8.26c6.233,5.506 9.349,13.645 9.349,24.416l0,10.529c0,12.465 -6.414,20.15 -19.242,23.054l0,2.904c6.777,1.21 11.981,3.691 15.612,7.443c3.631,3.752 5.446,9.016 5.446,15.793l0,34.672l-26.685,0l0,-37.758c0,-3.389 -1.15,-5.99 -3.449,-7.806c-2.299,-1.815 -5.506,-2.723 -9.621,-2.723l-5.446,0l0,48.287l-26.322,0Zm26.322,-71.16l3.994,0c8.471,0 12.707,-3.51 12.707,-10.529l0,-10.347c0,-6.898 -4.236,-10.347 -12.707,-10.347l-3.994,0l0,31.223Z" style="fill:#431c0d;fill-rule:nonzero;"/><path d="M274.11,352.345l0,-127.071l26.322,0l0,33.038l14.885,-33.038l28.5,0l-23.599,47.379l25.414,79.692l-30.497,0l-12.526,-48.105l-2.178,4.357l0,43.749l-26.322,0Z" style="fill:#431c0d;fill-rule:nonzero;"/><path d="M361.607,352.345l0,-127.071l35.58,0c11.497,0 20.362,3.419 26.594,10.256c6.233,6.838 9.349,16.61 9.349,29.317l0,3.086c0,12.707 -3.116,22.51 -9.349,29.408c-6.233,6.898 -15.097,10.347 -26.594,10.347l-9.258,0l0,44.656l-26.322,0Zm31.949,-102.383l-5.627,0l0,33.038l5.627,0c8.471,0 12.707,-4.599 12.707,-13.796l0,-5.446c0,-9.198 -4.236,-13.796 -12.707,-13.796Z" style="fill:#431c0d;fill-rule:nonzero;"/><path d="M452.372,352.345l0,-127.071l26.503,0l0,102.02l45.019,0l0,25.051l-71.523,0Z" style="fill:#431c0d;fill-rule:nonzero;"/><path d="M536.058,352.345l19.061,-127.071l33.22,0l19.242,127.071l-26.322,0l-1.815,-17.427l-14.885,0l-1.997,17.427l-26.503,0Zm33.401,-61.357l-2.178,18.698l9.44,0l-1.997,-18.698l-0.908,-25.959l-3.268,0l-1.089,25.959Z" style="fill:#431c0d;fill-rule:nonzero;"/><path d="M657.32,355.249c-7.019,0 -13.221,-1.846 -18.607,-5.537c-5.385,-3.691 -9.591,-8.804 -12.616,-15.339c-3.025,-6.535 -4.538,-14.038 -4.538,-22.51l0,-46.29c0,-8.471 1.513,-15.944 4.538,-22.419c3.025,-6.475 7.231,-11.557 12.616,-15.249c5.385,-3.691 11.588,-5.537 18.607,-5.537c7.019,0 13.221,1.846 18.607,5.537c5.385,3.691 9.591,8.774 12.616,15.249c3.025,6.475 4.538,13.948 4.538,22.419l0,11.799l-26.866,0l0,-13.978c0,-10.408 -2.965,-15.612 -8.895,-15.612c-5.93,0 -8.895,5.204 -8.895,15.612l0,50.828c0,10.408 2.965,15.612 8.895,15.612c5.93,0 8.895,-5.204 8.895,-15.612l0,-13.978l26.866,0l0,11.618c0,8.471 -1.513,15.975 -4.538,22.51c-3.025,6.535 -7.231,11.648 -12.616,15.339c-5.385,3.691 -11.588,5.537 -18.607,5.537Z" style="fill:#431c0d;fill-rule:nonzero;"/><path d="M714.32,352.345l0,-127.071l71.523,0l0,25.051l-45.019,0l0,25.233l33.946,0l0,25.233l-33.946,0l0,26.503l45.019,0l0,25.051l-71.523,0Z" style="fill:#431c0d;fill-rule:nonzero;"/><path d="M189.245,502.345l0,-127.071l32.857,0c12.102,0 21.269,2.753 27.502,8.26c6.233,5.506 9.349,13.645 9.349,24.416l0,10.529c0,12.465 -6.414,20.15 -19.242,23.054l0,2.904c6.777,1.21 11.981,3.691 15.612,7.443c3.631,3.752 5.446,9.016 5.446,15.793l0,34.672l-26.685,0l0,-37.758c0,-3.389 -1.15,-5.99 -3.449,-7.806c-2.299,-1.815 -5.506,-2.723 -9.621,-2.723l-5.446,0l0,48.287l-26.322,0Zm26.322,-71.16l3.994,0c8.471,0 12.707,-3.51 12.707,-10.529l0,-10.347c0,-6.898 -4.236,-10.347 -12.707,-10.347l-3.994,0l0,31.223Z" style="fill:#431c0d;fill-rule:nonzero;"/><path d="M314.864,505.249c-7.019,0 -13.221,-1.846 -18.607,-5.537c-5.385,-3.691 -9.621,-8.804 -12.707,-15.339c-3.086,-6.535 -4.629,-14.038 -4.629,-22.51l0,-46.29c0,-8.471 1.543,-15.944 4.629,-22.419c3.086,-6.475 7.322,-11.557 12.707,-15.249c5.385,-3.691 11.588,-5.537 18.607,-5.537c7.019,0 13.221,1.846 18.607,5.537c5.385,3.691 9.621,8.774 12.707,15.249c3.086,6.475 4.629,13.948 4.629,22.419l0,46.29c0,8.471 -1.543,15.975 -4.629,22.51c-3.086,6.535 -7.322,11.648 -12.707,15.339c-5.385,3.691 -11.588,5.537 -18.607,5.537Zm0,-25.414c6.051,0 9.076,-5.204 9.076,-15.612l0,-50.828c0,-10.408 -3.025,-15.612 -9.076,-15.612c-6.051,0 -9.076,5.204 -9.076,15.612l0,50.828c0,10.408 3.025,15.612 9.076,15.612Z" style="fill:#431c0d;fill-rule:nonzero;"/><path d="M364.784,502.345l19.061,-127.071l33.22,0l19.242,127.071l-26.322,0l-1.815,-17.427l-14.885,0l-1.997,17.427l-26.503,0Zm33.401,-61.357l-2.178,18.698l9.44,0l-1.997,-18.698l-0.908,-25.959l-3.268,0l-1.089,25.959Z" style="fill:#431c0d;fill-rule:nonzero;"/><path d="M485.139,505.249c-11.013,0 -19.817,-3.6 -26.413,-10.801c-6.596,-7.201 -9.893,-17.457 -9.893,-30.769l24.87,0c0,6.293 1.089,10.862 3.268,13.706c2.178,2.844 4.962,4.266 8.35,4.266c3.147,0 5.567,-0.938 7.261,-2.814c1.694,-1.876 2.541,-4.387 2.541,-7.533c0,-3.631 -0.908,-6.777 -2.723,-9.44c-1.815,-2.662 -4.145,-5.143 -6.989,-7.443c-2.844,-2.299 -5.9,-4.659 -9.167,-7.08c-4.115,-3.147 -8.26,-6.475 -12.435,-9.984c-4.175,-3.51 -7.655,-7.715 -10.438,-12.616c-2.783,-4.901 -4.175,-10.862 -4.175,-17.881c0,-7.019 1.482,-13.1 4.447,-18.244c2.965,-5.143 7.019,-9.137 12.163,-11.981c5.143,-2.844 10.983,-4.266 17.518,-4.266c7.14,0 13.403,1.634 18.788,4.901c5.385,3.268 9.561,7.897 12.526,13.887c2.965,5.99 4.447,12.979 4.447,20.967l-24.87,0c0,-5.325 -0.938,-9.288 -2.814,-11.89c-1.876,-2.602 -4.447,-3.903 -7.715,-3.903c-2.783,0 -5.022,0.908 -6.717,2.723c-1.694,1.815 -2.541,4.175 -2.541,7.08c0,4.478 1.785,8.29 5.355,11.436c3.57,3.147 8.078,6.717 13.524,10.71c4.478,3.268 8.774,6.656 12.889,10.166c4.115,3.51 7.503,7.685 10.166,12.526c2.662,4.841 3.994,10.892 3.994,18.153c0,10.771 -3.177,19.484 -9.53,26.14c-6.354,6.656 -14.916,9.984 -25.686,9.984Z" style="fill:#431c0d;fill-rule:nonzero;"/><path d="M554.301,502.345l0,-102.02l-22.691,0l0,-25.051l71.523,0l0,25.051l-22.691,0l0,102.02l-26.14,0Z" style="fill:#431c0d;fill-rule:nonzero;"/><g><path d="M408.374,56.34c4.164,-0.189 -2.074,3.835 -4.424,6.604c-17.028,20.058 -5.689,48.453 -3.95,55.014c3.511,13.246 0.796,30.028 -6.739,39.579c-4.878,6.184 -11.146,14.79 -16.796,13.882c-1.499,0.191 -1.873,0.087 -2.03,0.043c-12.453,-3.462 -19.49,-15.952 -20.56,-17.85c-17.274,-30.658 -0.933,-71.735 24.251,-88.06c8.658,-5.612 15.69,-8.552 30.248,-9.212" style="fill:#8a4725;"/><path d="M421.699,60.377c2.749,0.299 6.063,2.103 10.358,6.299c16.719,16.336 14.843,44.329 13.654,49.029c-1.627,6.435 -1.124,6.458 -1.322,6.992c-0.286,0.771 -2.363,6.367 -3.286,9.747c-0.232,0.42 -0.123,0.462 -2.515,5.446c-11.314,23.583 -26.914,29.59 -33.254,32.669c-4.394,2.133 -13.128,3.589 -13.602,2.905c-0.614,-0.887 -1.093,-0.941 -0.527,-1.437c6.784,-5.951 6.328,-6.327 11.625,-13.637c3.238,-4.469 6.649,-15.052 6.986,-20.579c1.129,-18.522 -2.779,-26.45 -2.964,-27.689c-1.455,-9.744 -9.868,-27.422 4.98,-44.017c2.949,-3.296 5.784,-6.172 9.866,-5.728" style="fill:#e89847;"/></g><path d="M399.199,0.556c0.456,0.404 0.911,0.809 1.367,1.213c-6.895,16.459 9.491,17.876 8.058,37.639c-0.437,6.022 -13.061,17.321 -8.593,7.62c2.524,-5.48 -3.201,-15.86 -3.878,-17.087c-4.038,-7.321 -9.996,-16.505 2.324,-28.804c0.053,-0.052 -0,0 0.723,-0.582Z" style="fill:#d07831;"/><path d="M417.581,13.259c0.657,0.661 0.702,0.603 0.912,1.497c-0.847,9.833 1.783,9.327 5.582,18.388c3.28,7.823 -0.094,12.768 -5.095,16.555c-0.983,0.745 -3.07,0.799 -1.451,-1.399c3.511,-4.769 -1.147,-13.474 -1.698,-14.504c-5.474,-10.23 -4.015,-14.763 1.75,-20.537Z" style="fill:#ca7734;"/><path d="M377.081,28.476c0.023,-2.485 -0.947,-4.908 3.093,-10.781c3.466,-5.038 2.368,3.654 2.369,3.924c0.057,10.181 15.174,18.629 1.558,30.22c-1.868,1.59 -1.377,-3.208 -1.347,-3.507c1.125,-11.002 -4.641,-11.599 -5.674,-19.856Z" style="fill:#ce7e39;"/><path d="M399.199,0.556c2.833,-1.717 1.432,1.082 1.367,1.213c-0.456,-0.404 -0.911,-0.809 -1.367,-1.213Z" style="fill:#d9bc9e;"/><path d="M417.581,13.259c0.26,0.034 0.463,-0.342 0.722,-0.308c0.103,0.013 0.045,0.082 0.625,1.135l-0.435,0.67c-0.21,-0.894 -0.256,-0.835 -0.912,-1.497Z" style="fill:#d2b692;"/><rect x="0" y="428.636" width="148.152" height="16.667" style="fill:#431c0d;"/><rect x="144.291" y="151.748" width="176.892" height="16.667" style="fill:#431c0d;"/><rect x="637.69" y="428.636" width="148.152" height="16.667" style="fill:#431c0d;"/></svg>