<?xml version="1.0" encoding="UTF-8" standalone="no"?><!DOCTYPE svg PUBLIC "-//W3C//DTD SVG 1.1//EN" "http://www.w3.org/Graphics/SVG/1.1/DTD/svg11.dtd"><svg width="100%" height="100%" viewBox="0 0 786 683" version="1.1" xmlns="http://www.w3.org/2000/svg" xmlns:xlink="http://www.w3.org/1999/xlink" xml:space="preserve" xmlns:serif="http://www.serif.com/" style="fill-rule:evenodd;clip-rule:evenodd;stroke-linejoin:round;stroke-miterlimit:2;"><g><g><path d="M406.854,141.056c4.164,-0.189 -2.074,3.835 -4.424,6.604c-17.028,20.058 -5.689,48.453 -3.95,55.014c3.511,13.246 0.796,30.028 -6.739,39.579c-4.878,6.184 -11.146,14.79 -16.796,13.882c-1.499,0.191 -1.873,0.087 -2.03,0.043c-12.453,-3.462 -19.49,-15.952 -20.56,-17.85c-17.274,-30.658 -0.933,-71.735 24.251,-88.06c8.658,-5.612 15.69,-8.552 30.248,-9.212" style="fill:#8a4725;"/><path d="M420.179,145.093c2.749,0.299 6.063,2.103 10.358,6.299c16.719,16.336 14.843,44.329 13.654,49.029c-1.627,6.435 -1.124,6.458 -1.322,6.992c-0.286,0.771 -2.363,6.367 -3.286,9.747c-0.232,0.42 -0.123,0.462 -2.515,5.446c-11.314,23.583 -26.914,29.59 -33.254,32.669c-4.394,2.133 -13.128,3.589 -13.602,2.905c-0.614,-0.887 -1.093,-0.941 -0.527,-1.437c6.784,-5.951 6.328,-6.327 11.625,-13.637c3.238,-4.469 6.649,-15.052 6.986,-20.579c1.129,-18.522 -2.779,-26.45 -2.964,-27.689c-1.455,-9.744 -9.868,-27.422 4.98,-44.017c2.949,-3.296 5.784,-6.172 9.866,-5.728" style="fill:#e89847;"/></g><path d="M397.679,85.272c0.456,0.404 0.911,0.809 1.367,1.213c-6.895,16.459 9.491,17.876 8.058,37.639c-0.437,6.022 -13.061,17.321 -8.593,7.62c2.524,-5.48 -3.201,-15.86 -3.878,-17.087c-4.038,-7.321 -9.996,-16.505 2.324,-28.804c0.053,-0.052 -0,0 0.723,-0.582Z" style="fill:#d07831;"/><path d="M416.061,97.975c0.657,0.661 0.702,0.603 0.912,1.497c-0.847,9.833 1.783,9.327 5.582,18.388c3.28,7.823 -0.094,12.768 -5.095,16.555c-0.983,0.745 -3.07,0.799 -1.451,-1.399c3.511,-4.769 -1.147,-13.474 -1.698,-14.504c-5.474,-10.23 -4.015,-14.763 1.75,-20.537Z" style="fill:#ca7734;"/><path d="M375.561,113.192c0.023,-2.485 -0.947,-4.908 3.093,-10.781c3.466,-5.038 2.368,3.654 2.369,3.924c0.057,10.181 15.174,18.629 1.558,30.22c-1.868,1.59 -1.377,-3.208 -1.347,-3.507c1.125,-11.002 -4.641,-11.599 -5.674,-19.856Z" style="fill:#ce7e39;"/><path d="M397.679,85.272c2.833,-1.717 1.432,1.082 1.367,1.213c-0.456,-0.404 -0.911,-0.809 -1.367,-1.213Z" style="fill:#d9bc9e;"/><path d="M416.061,97.975c0.26,0.034 0.463,-0.342 0.722,-0.308c0.103,0.013 0.045,0.082 0.625,1.135l-0.435,0.67c-0.21,-0.894 -0.256,-0.835 -0.912,-1.497Z" style="fill:#d2b692;"/></g><rect x="466.14" y="233.681" width="176.892" height="16.667" style="fill:#431c0d;"/><g><path d="M12.163,434.277l-12.163,-127.071l21.421,0l4.901,61.539l3.086,-34.128l12.707,0l3.086,36.851l5.446,-64.262l20.876,0l-12.163,127.071l-19.424,0l-4.175,-50.102l-4.357,50.102l-19.242,0Z" style="fill:#431c0d;fill-rule:nonzero;"/><path d="M123.803,437.182c-7.019,0 -13.221,-1.846 -18.607,-5.537c-5.385,-3.691 -9.621,-8.804 -12.707,-15.339c-3.086,-6.535 -4.629,-14.038 -4.629,-22.51l0,-46.29c0,-8.471 1.543,-15.944 4.629,-22.419c3.086,-6.475 7.322,-11.557 12.707,-15.249c5.385,-3.691 11.588,-5.537 18.607,-5.537c7.019,0 13.221,1.846 18.607,5.537c5.385,3.691 9.621,8.774 12.707,15.249c3.086,6.475 4.629,13.948 4.629,22.419l0,46.29c0,8.471 -1.543,15.975 -4.629,22.51c-3.086,6.535 -7.322,11.648 -12.707,15.339c-5.385,3.691 -11.588,5.537 -18.607,5.537Zm0,-25.414c6.051,0 9.076,-5.204 9.076,-15.612l0,-50.828c0,-10.408 -3.025,-15.612 -9.076,-15.612c-6.051,0 -9.076,5.204 -9.076,15.612l0,50.828c0,10.408 3.025,15.612 9.076,15.612Z" style="fill:#431c0d;fill-rule:nonzero;"/><path d="M181.53,434.277l0,-127.071l32.857,0c12.102,0 21.269,2.753 27.502,8.26c6.233,5.506 9.349,13.645 9.349,24.416l0,10.529c0,12.465 -6.414,20.15 -19.242,23.054l0,2.904c6.777,1.21 11.981,3.691 15.612,7.443c3.631,3.752 5.446,9.016 5.446,15.793l0,34.672l-26.685,0l0,-37.758c0,-3.389 -1.15,-5.99 -3.449,-7.806c-2.299,-1.815 -5.506,-2.723 -9.621,-2.723l-5.446,0l0,48.287l-26.322,0Zm26.322,-71.16l3.994,0c8.471,0 12.707,-3.51 12.707,-10.529l0,-10.347c0,-6.898 -4.236,-10.347 -12.707,-10.347l-3.994,0l0,31.223Z" style="fill:#431c0d;fill-rule:nonzero;"/><path d="M274.11,434.277l0,-127.071l26.322,0l0,33.038l14.885,-33.038l28.5,0l-23.599,47.379l25.414,79.692l-30.497,0l-12.526,-48.105l-2.178,4.357l0,43.749l-26.322,0Z" style="fill:#431c0d;fill-rule:nonzero;"/><path d="M361.607,434.277l0,-127.071l35.58,0c11.497,0 20.362,3.419 26.594,10.256c6.233,6.838 9.349,16.61 9.349,29.317l0,3.086c0,12.707 -3.116,22.51 -9.349,29.408c-6.233,6.898 -15.097,10.347 -26.594,10.347l-9.258,0l0,44.656l-26.322,0Zm31.949,-102.383l-5.627,0l0,33.038l5.627,0c8.471,0 12.707,-4.599 12.707,-13.796l0,-5.446c0,-9.198 -4.236,-13.796 -12.707,-13.796Z" style="fill:#431c0d;fill-rule:nonzero;"/><path d="M452.372,434.277l0,-127.071l26.503,0l0,102.02l45.019,0l0,25.051l-71.523,0Z" style="fill:#431c0d;fill-rule:nonzero;"/><path d="M536.058,434.277l19.061,-127.071l33.22,0l19.242,127.071l-26.322,0l-1.815,-17.427l-14.885,0l-1.997,17.427l-26.503,0Zm33.401,-61.357l-2.178,18.698l9.44,0l-1.997,-18.698l-0.908,-25.959l-3.268,0l-1.089,25.959Z" style="fill:#431c0d;fill-rule:nonzero;"/><path d="M657.32,437.182c-7.019,0 -13.221,-1.846 -18.607,-5.537c-5.385,-3.691 -9.591,-8.804 -12.616,-15.339c-3.025,-6.535 -4.538,-14.038 -4.538,-22.51l0,-46.29c0,-8.471 1.513,-15.944 4.538,-22.419c3.025,-6.475 7.231,-11.557 12.616,-15.249c5.385,-3.691 11.588,-5.537 18.607,-5.537c7.019,0 13.221,1.846 18.607,5.537c5.385,3.691 9.591,8.774 12.616,15.249c3.025,6.475 4.538,13.948 4.538,22.419l0,11.799l-26.866,0l0,-13.978c0,-10.408 -2.965,-15.612 -8.895,-15.612c-5.93,0 -8.895,5.204 -8.895,15.612l0,50.828c0,10.408 2.965,15.612 8.895,15.612c5.93,0 8.895,-5.204 8.895,-15.612l0,-13.978l26.866,0l0,11.618c0,8.471 -1.513,15.975 -4.538,22.51c-3.025,6.535 -7.231,11.648 -12.616,15.339c-5.385,3.691 -11.588,5.537 -18.607,5.537Z" style="fill:#431c0d;fill-rule:nonzero;"/><path d="M714.32,434.277l0,-127.071l71.523,0l0,25.051l-45.019,0l0,25.233l33.946,0l0,25.233l-33.946,0l0,26.503l45.019,0l0,25.051l-71.523,0Z" style="fill:#431c0d;fill-rule:nonzero;"/><path d="M189.245,584.277l0,-127.071l32.857,0c12.102,0 21.269,2.753 27.502,8.26c6.233,5.506 9.349,13.645 9.349,24.416l0,10.529c0,12.465 -6.414,20.15 -19.242,23.054l0,2.904c6.777,1.21 11.981,3.691 15.612,7.443c3.631,3.752 5.446,9.016 5.446,15.793l0,34.672l-26.685,0l0,-37.758c0,-3.389 -1.15,-5.99 -3.449,-7.806c-2.299,-1.815 -5.506,-2.723 -9.621,-2.723l-5.446,0l0,48.287l-26.322,0Zm26.322,-71.16l3.994,0c8.471,0 12.707,-3.51 12.707,-10.529l0,-10.347c0,-6.898 -4.236,-10.347 -12.707,-10.347l-3.994,0l0,31.223Z" style="fill:#431c0d;fill-rule:nonzero;"/><path d="M314.864,587.182c-7.019,0 -13.221,-1.846 -18.607,-5.537c-5.385,-3.691 -9.621,-8.804 -12.707,-15.339c-3.086,-6.535 -4.629,-14.038 -4.629,-22.51l0,-46.29c0,-8.471 1.543,-15.944 4.629,-22.419c3.086,-6.475 7.322,-11.557 12.707,-15.249c5.385,-3.691 11.588,-5.537 18.607,-5.537c7.019,0 13.221,1.846 18.607,5.537c5.385,3.691 9.621,8.774 12.707,15.249c3.086,6.475 4.629,13.948 4.629,22.419l0,46.29c0,8.471 -1.543,15.975 -4.629,22.51c-3.086,6.535 -7.322,11.648 -12.707,15.339c-5.385,3.691 -11.588,5.537 -18.607,5.537Zm0,-25.414c6.051,0 9.076,-5.204 9.076,-15.612l0,-50.828c0,-10.408 -3.025,-15.612 -9.076,-15.612c-6.051,0 -9.076,5.204 -9.076,15.612l0,50.828c0,10.408 3.025,15.612 9.076,15.612Z" style="fill:#431c0d;fill-rule:nonzero;"/><path d="M364.784,584.277l19.061,-127.071l33.22,0l19.242,127.071l-26.322,0l-1.815,-17.427l-14.885,0l-1.997,17.427l-26.503,0Zm33.401,-61.357l-2.178,18.698l9.44,0l-1.997,-18.698l-0.908,-25.959l-3.268,0l-1.089,25.959Z" style="fill:#431c0d;fill-rule:nonzero;"/><path d="M485.139,587.182c-11.013,0 -19.817,-3.6 -26.413,-10.801c-6.596,-7.201 -9.893,-17.457 -9.893,-30.769l24.87,0c0,6.293 1.089,10.862 3.268,13.706c2.178,2.844 4.962,4.266 8.35,4.266c3.147,0 5.567,-0.938 7.261,-2.814c1.694,-1.876 2.541,-4.387 2.541,-7.533c0,-3.631 -0.908,-6.777 -2.723,-9.44c-1.815,-2.662 -4.145,-5.143 -6.989,-7.443c-2.844,-2.299 -5.9,-4.659 -9.167,-7.08c-4.115,-3.147 -8.26,-6.475 -12.435,-9.984c-4.175,-3.51 -7.655,-7.715 -10.438,-12.616c-2.783,-4.901 -4.175,-10.862 -4.175,-17.881c0,-7.019 1.482,-13.1 4.447,-18.244c2.965,-5.143 7.019,-9.137 12.163,-11.981c5.143,-2.844 10.983,-4.266 17.518,-4.266c7.14,0 13.403,1.634 18.788,4.901c5.385,3.268 9.561,7.897 12.526,13.887c2.965,5.99 4.447,12.979 4.447,20.967l-24.87,0c0,-5.325 -0.938,-9.288 -2.814,-11.89c-1.876,-2.602 -4.447,-3.903 -7.715,-3.903c-2.783,0 -5.022,0.908 -6.717,2.723c-1.694,1.815 -2.541,4.175 -2.541,7.08c0,4.478 1.785,8.29 5.355,11.436c3.57,3.147 8.078,6.717 13.524,10.71c4.478,3.268 8.774,6.656 12.889,10.166c4.115,3.51 7.503,7.685 10.166,12.526c2.662,4.841 3.994,10.892 3.994,18.153c0,10.771 -3.177,19.484 -9.53,26.14c-6.354,6.656 -14.916,9.984 -25.686,9.984Z" style="fill:#431c0d;fill-rule:nonzero;"/><path d="M554.301,584.277l0,-102.02l-22.691,0l0,-25.051l71.523,0l0,25.051l-22.691,0l0,102.02l-26.14,0Z" style="fill:#431c0d;fill-rule:nonzero;"/></g><rect x="0" y="510.569" width="148.152" height="16.667" style="fill:#431c0d;"/><rect x="144.291" y="233.681" width="176.892" height="16.667" style="fill:#431c0d;"/><rect x="637.69" y="510.569" width="148.152" height="16.667" style="fill:#431c0d;"/><g><g><path d="M185.721,131.559l-12.708,-13.011l-23.45,-12.828l6.617,-6.463l10.401,6.266l-5.885,-10.677l6.483,-6.332l12.273,23.746l12.708,13.011l-6.438,6.289Z" style="fill:#431c0d;fill-rule:nonzero;"/><path d="M207.806,112.795c-1.862,1.54 -3.913,2.412 -6.151,2.614c-2.239,0.203 -4.485,-0.224 -6.737,-1.281c-2.253,-1.057 -4.309,-2.708 -6.168,-4.956l-10.158,-12.281c-1.859,-2.247 -3.09,-4.569 -3.692,-6.963c-0.602,-2.395 -0.594,-4.673 0.025,-6.834c0.619,-2.161 1.859,-4.012 3.721,-5.552c1.862,-1.54 3.913,-2.412 6.151,-2.614c2.239,-0.203 4.478,0.216 6.717,1.257c2.24,1.04 4.289,2.684 6.148,4.932l10.158,12.281c1.859,2.247 3.096,4.577 3.712,6.988c0.615,2.411 0.614,4.697 -0.005,6.858c-0.619,2.161 -1.859,4.012 -3.721,5.552Zm-5.577,-6.742c1.605,-1.328 1.266,-3.372 -1.018,-6.134l-11.154,-13.485c-2.284,-2.761 -4.229,-3.478 -5.834,-2.15c-1.605,1.328 -1.266,3.372 1.018,6.134l11.154,13.485c2.284,2.761 4.229,3.478 5.834,2.15Z" style="fill:#431c0d;fill-rule:nonzero;"/><path d="M230.364,95.873c-3.275,2.223 -6.514,2.886 -9.717,1.988c-3.203,-0.898 -6.045,-3.174 -8.525,-6.828l-17.129,-25.236l7.498,-5.09l17.094,25.184c1.076,1.586 2.082,2.603 3.016,3.052c0.934,0.449 1.884,0.345 2.849,-0.31c0.896,-0.608 1.308,-1.429 1.236,-2.463c-0.072,-1.034 -0.646,-2.344 -1.723,-3.929l-17.094,-25.184l7.498,-5.09l17.129,25.236c2.48,3.654 3.564,7.124 3.25,10.409c-0.314,3.285 -2.108,6.039 -5.383,8.262Z" style="fill:#431c0d;fill-rule:nonzero;"/><path d="M243.874,85.767l-20.914,-38.427l9.936,-5.408c3.66,-1.992 6.885,-2.668 9.676,-2.029c2.791,0.639 5.073,2.588 6.846,5.845l1.733,3.184c2.052,3.77 1.377,7.149 -2.025,10.139l0.478,0.878c2.249,-0.749 4.231,-0.856 5.946,-0.319c1.715,0.537 3.131,1.83 4.246,3.88l5.707,10.485l-8.07,4.392l-6.214,-11.418c-0.558,-1.025 -1.334,-1.622 -2.328,-1.793c-0.994,-0.171 -2.113,0.083 -3.358,0.76l-1.647,0.896l7.947,14.602l-7.96,4.332Zm-3.752,-25.852l1.208,-0.657c2.562,-1.394 3.265,-3.153 2.11,-5.275l-1.703,-3.129c-1.135,-2.086 -2.984,-2.432 -5.546,-1.038l-1.208,0.657l5.139,9.442Z" style="fill:#431c0d;fill-rule:nonzero;"/><path d="M276.565,68.832l-16.019,-40.712l8.433,-3.318l14.958,18.898l-8.444,-21.461l7.968,-3.135l16.019,40.712l-8.433,3.318l-14.958,-18.898l8.444,21.461l-7.968,3.135Z" style="fill:#431c0d;fill-rule:nonzero;"/><path d="M304.076,58.264l-11.905,-42.099l23.696,-6.701l2.347,8.3l-14.915,4.218l2.364,8.36l11.246,-3.18l2.364,8.36l-11.246,3.18l2.483,8.781l14.915,-4.218l2.347,8.3l-23.696,6.701Z" style="fill:#431c0d;fill-rule:nonzero;"/><path d="M329.578,51.138l-1.595,-8.476l7.678,-1.445l-4.901,-26.043l-7.678,1.445l-1.595,-8.476l24.2,-4.554l1.595,8.476l-7.616,1.433l4.901,26.043l7.616,-1.433l1.595,8.476l-24.2,4.554Z" style="fill:#431c0d;fill-rule:nonzero;"/><path d="M365.657,46.358c-1.784,0.171 -3.456,-0.14 -5.018,-0.932c-1.562,-0.792 -2.893,-2.234 -3.993,-4.327c-1.1,-2.092 -1.827,-4.984 -2.181,-8.675l-1.519,-15.865c-0.278,-2.903 -0.005,-5.514 0.82,-7.833c0.824,-2.318 2.099,-4.198 3.824,-5.64c1.725,-1.442 3.79,-2.278 6.195,-2.508c2.406,-0.23 4.592,0.199 6.559,1.287c1.967,1.088 3.575,2.692 4.824,4.812c1.249,2.12 2.013,4.631 2.291,7.535l0.298,3.111l-9.208,0.882l-0.393,-4.106c-0.342,-3.567 -1.549,-5.251 -3.623,-5.053c-2.074,0.199 -2.94,2.081 -2.598,5.648l1.716,17.918c0.342,3.567 1.549,5.251 3.623,5.053c2.074,-0.199 2.94,-2.081 2.598,-5.648l-0.25,-2.613l-3.733,0.357l-0.739,-7.715l12.941,-1.239l2.216,23.144l-7.093,0.679l-0.254,-4.622l-1.058,0.101c-0.161,1.815 -0.755,3.264 -1.781,4.346c-1.027,1.082 -2.515,1.716 -4.464,1.903Z" style="fill:#431c0d;fill-rule:nonzero;"/><path d="M384.651,43.75l0.135,-43.75l9.062,0.028l-0.051,16.5l6.437,0.02l0.051,-16.5l9.125,0.028l-0.135,43.75l-9.125,-0.028l0.058,-18.625l-6.437,-0.02l-0.058,18.625l-9.062,-0.028Z" style="fill:#431c0d;fill-rule:nonzero;"/><path d="M414.005,44.078l4.485,-43.52l11.626,1.198c4.145,0.427 7.187,1.694 9.127,3.799c1.94,2.106 2.72,5.003 2.34,8.692l-0.218,2.114c-0.209,2.031 -0.934,3.674 -2.173,4.928c-1.239,1.255 -2.983,2.017 -5.231,2.288l-0.103,0.995c4.469,1.34 6.476,4.228 6.019,8.663l-0.218,2.114c-0.38,3.689 -1.736,6.376 -4.067,8.063c-2.331,1.687 -5.569,2.316 -9.714,1.889l-11.875,-1.224Zm11.68,-24.934l1.741,0.179c2.901,0.299 4.476,-0.753 4.724,-3.157l0.211,-2.052c0.243,-2.362 -1.085,-3.693 -3.987,-3.992l-1.741,-0.179l-0.948,9.201Zm-1.8,17.47l1.989,0.205c2.901,0.299 4.474,-0.733 4.717,-3.095l0.256,-2.487c0.248,-2.404 -1.079,-3.755 -3.98,-4.054l-1.989,-0.205l-0.993,9.636Z" style="fill:#431c0d;fill-rule:nonzero;"/><path d="M452.758,50.307c-2.372,-0.465 -4.345,-1.499 -5.92,-3.103c-1.575,-1.604 -2.668,-3.612 -3.277,-6.024c-0.61,-2.412 -0.634,-5.05 -0.073,-7.912l3.065,-15.64c0.561,-2.862 1.577,-5.285 3.049,-7.268c1.471,-1.983 3.239,-3.42 5.303,-4.31c2.064,-0.89 4.282,-1.103 6.653,-0.638c2.372,0.465 4.345,1.499 5.92,3.103c1.575,1.604 2.67,3.602 3.284,5.993c0.614,2.392 0.64,5.019 0.079,7.881l-3.065,15.64c-0.561,2.862 -1.579,5.295 -3.055,7.299c-1.475,2.004 -3.245,3.451 -5.309,4.341c-2.064,0.89 -4.282,1.103 -6.653,0.638Zm1.683,-8.587c2.044,0.401 3.411,-1.157 4.1,-4.674l3.366,-17.173c0.689,-3.516 0.012,-5.475 -2.033,-5.876c-2.044,-0.401 -3.411,1.157 -4.1,4.674l-3.366,17.173c-0.689,3.516 -0.012,5.475 2.033,5.876Z" style="fill:#431c0d;fill-rule:nonzero;"/><path d="M480.135,57.025c-3.796,-1.122 -6.362,-3.206 -7.7,-6.252c-1.337,-3.046 -1.38,-6.686 -0.127,-10.922l8.647,-29.248l8.691,2.569l-8.63,29.189c-0.543,1.838 -0.692,3.26 -0.447,4.267c0.245,1.007 0.928,1.675 2.046,2.006c1.039,0.307 1.935,0.105 2.688,-0.606c0.753,-0.711 1.402,-1.986 1.945,-3.824l8.63,-29.189l8.691,2.569l-8.647,29.248c-1.252,4.235 -3.248,7.274 -5.986,9.114c-2.738,1.841 -6.006,2.2 -9.802,1.078Z" style="fill:#431c0d;fill-rule:nonzero;"/><path d="M496.538,61.066l16.464,-40.534l10.481,4.257c3.86,1.568 6.428,3.634 7.703,6.198c1.275,2.564 1.214,5.564 -0.181,9l-1.364,3.359c-1.615,3.976 -4.657,5.596 -9.125,4.861l-0.376,0.926c2.005,1.264 3.344,2.73 4.016,4.397c0.672,1.667 0.569,3.582 -0.309,5.743l-4.492,11.06l-8.512,-3.457l4.892,-12.044c0.439,-1.081 0.409,-2.06 -0.089,-2.937c-0.498,-0.877 -1.404,-1.582 -2.716,-2.115l-1.737,-0.706l-6.256,15.403l-8.396,-3.41Zm17.616,-19.289l1.274,0.517c2.702,1.098 4.508,0.527 5.418,-1.712l1.341,-3.301c0.894,-2.2 -0.01,-3.849 -2.713,-4.947l-1.274,-0.517l-4.045,9.96Z" style="fill:#431c0d;fill-rule:nonzero;"/><path d="M522.492,71.784l20.246,-38.784l8.034,4.194l-7.635,14.627l5.707,2.979l7.635,-14.627l8.089,4.223l-20.246,38.784l-8.089,-4.223l8.619,-16.511l-5.707,-2.979l-8.619,16.511l-8.034,-4.194Z" style="fill:#431c0d;fill-rule:nonzero;"/><path d="M557.357,92.653c-2.024,-1.32 -3.466,-3.018 -4.325,-5.096c-0.859,-2.077 -1.119,-4.348 -0.781,-6.813c0.339,-2.465 1.305,-4.919 2.897,-7.363l8.704,-13.351c1.593,-2.443 3.443,-4.308 5.551,-5.596c2.107,-1.287 4.285,-1.957 6.532,-2.009c2.247,-0.052 4.383,0.582 6.408,1.902c2.024,1.32 3.466,3.018 4.325,5.096c0.859,2.077 1.125,4.34 0.798,6.787c-0.327,2.448 -1.287,4.893 -2.88,7.336l-8.704,13.351c-1.593,2.443 -3.449,4.317 -5.568,5.622c-2.119,1.305 -4.302,1.983 -6.549,2.035c-2.247,0.052 -4.383,-0.582 -6.408,-1.902Zm4.779,-7.33c1.745,1.138 3.596,0.206 5.553,-2.796l9.557,-14.66c1.957,-3.002 2.063,-5.072 0.318,-6.209c-1.745,-1.138 -3.596,-0.206 -5.553,2.796l-9.557,14.66c-1.957,3.002 -2.063,5.072 -0.318,6.209Z" style="fill:#431c0d;fill-rule:nonzero;"/><path d="M579.623,108.704c-1.892,-1.503 -3.169,-3.329 -3.83,-5.478c-0.661,-2.148 -0.708,-4.434 -0.14,-6.857c0.568,-2.423 1.759,-4.776 3.573,-7.059l9.914,-12.479c1.814,-2.284 3.831,-3.968 6.049,-5.052c2.219,-1.084 4.449,-1.547 6.691,-1.389c2.242,0.158 4.31,0.989 6.202,2.493c1.892,1.503 3.169,3.329 3.83,5.478c0.661,2.148 0.714,4.426 0.16,6.832c-0.555,2.406 -1.739,4.751 -3.554,7.035l-9.914,12.479c-1.814,2.284 -3.837,3.976 -6.069,5.077c-2.232,1.101 -4.468,1.572 -6.711,1.414c-2.242,-0.158 -4.31,-0.989 -6.202,-2.493Zm5.443,-6.851c1.631,1.296 3.561,0.541 5.79,-2.265l10.886,-13.702c2.229,-2.806 2.528,-4.856 0.897,-6.152c-1.631,-1.296 -3.561,-0.541 -5.79,2.265l-10.886,13.702c-2.229,2.806 -2.528,4.856 -0.897,6.152Z" style="fill:#431c0d;fill-rule:nonzero;"/><path d="M592.75,118.088l30.385,-31.477l9.803,9.463c2.458,2.373 3.56,5.131 3.306,8.274c-0.254,3.143 -1.842,6.228 -4.765,9.256l-11.416,11.826c-2.923,3.028 -5.957,4.731 -9.104,5.111c-3.146,0.38 -5.949,-0.617 -8.407,-2.99l-9.803,-9.463Zm12.421,0.002l2.473,2.387c1.499,1.447 3.493,0.881 5.981,-1.697l10.939,-11.332c2.489,-2.578 2.984,-4.591 1.485,-6.038l-2.473,-2.387l-18.405,19.066Z" style="fill:#431c0d;fill-rule:nonzero;"/></g></g><g><g transform="matrix(62.5,0,0,62.5,561.171398,681.04194)"></g><text x="225.546px" y="681.042px" style="font-family:'BBHSansBogle-Regular', 'BBH Sans Bogle';font-size:62.5px;fill:#431c0d;">Y<tspan x="248.484px " y="681.042px ">o</tspan>ur Business</text></g></svg>